PathFileType	4	(X/Y/Z)	C:/Users/opensim2020/Desktop/walking_exp_matlab/subject06_walking12_straigt_03.trc																																																																																																																																														
DataRate	CameraRate	NumFrames	NumMarkers	Units	OrigDataRate	OrigDataStartFrame	OrigNumFrames																																																																																																																																										
100	100	5	48	mm	100	2118	184																																																																																																																																										
Frame#	Time	LFHD			RFHD			LBHD			RBHD			C7			T10			CLAV			STRN			RBAK			LSHO			LUPA			LELB			LFRM			LWRA			LWRB			LFIN			RSHO			RUPA			RELB			RFRM			RWRA			RWRB			RFIN			LASI			RASI			LPSI			RPSI			LTHI			LKNE			LTIB			LANK			LHEE			LTOE			RTHI			RKNE			RTIB			RANK			RHEE			RTOE			*39			*40			*41			*42			*43			*44			*45			*46			*47		
		X1	Y1	Z1	X2	Y2	Z2	X3	Y3	Z3	X4	Y4	Z4	X5	Y5	Z5	X6	Y6	Z6	X7	Y7	Z7	X8	Y8	Z8	X9	Y9	Z9	X10	Y10	Z10	X11	Y11	Z11	X12	Y12	Z12	X13	Y13	Z13	X14	Y14	Z14	X15	Y15	Z15	X16	Y16	Z16	X17	Y17	Z17	X18	Y18	Z18	X19	Y19	Z19	X20	Y20	Z20	X21	Y21	Z21	X22	Y22	Z22	X23	Y23	Z23	X24	Y24	Z24	X25	Y25	Z25	X26	Y26	Z26	X27	Y27	Z27	X28	Y28	Z28	X29	Y29	Z29	X30	Y30	Z30	X31	Y31	Z31	X32	Y32	Z32	X33	Y33	Z33	X34	Y34	Z34	X35	Y35	Z35	X36	Y36	Z36	X37	Y37	Z37	X38	Y38	Z38	X39	Y39	Z39	X40	Y40	Z40	X41	Y41	Z41	X42	Y42	Z42	X43	Y43	Z43	X44	Y44	Z44	X45	Y45	Z45	X46	Y46	Z46	X47	Y47	Z47	X48	Y48	Z48
																																																																																																																																																	
47	0.46	-322.25275	1670.35803	-1030.8645	-329.73065	1653.50464	-900.17603	-455.55774	1617.55017	-1041.18738	-461.40057	1606.43604	-912.46967	-460.82825	1456.19727	-985.15381	-494.91321	1127.14905	-980.78955	-351.18533	1377.51355	-988.08667	-311.79282	1202.44409	-1000.28973	-530.87305	1284.11609	-905.22937	-411.09995	1412.88708	-1147.91174	-404.90396	1209.18176	-1216.91614	-399.28888	1095.98474	-1226.28699	-342.79865	956.61572	-1249.25427	-248.10963	866.13013	-1213.46143	-308.76834	842.00116	-1242.9812	-244.34981	778.0285	-1248.42444	-390.83911	1408.08105	-824.72296	-436.74026	1211.229	-737.76147	-434.05432	1088.71838	-727.05304	-421.68307	968.69403	-711.91882	-365.72815	828.93506	-745.92511	-419.83884	830.71832	-705.50366	-384.20898	754.1947	-704.91486	-324.75693	960.94006	-1094.0282	-313.95804	975.75323	-874.599	-479.87088	990.21075	-1060.20642	-466.79282	1002.08813	-892.80371	-380.29221	641.77301	-1151.11096	-360.91537	479.89838	-1138.41821	-553.73871	331.1618	-1120.57605	-685.73804	222.81464	-1078.90271	-714.5238	241.35497	-1027.32434	-633.13605	86.66717	-1091.85864	-352.30283	643.8844	-808.99597	-337.97318	519.75757	-833.61169	-369.10825	253.15111	-833.78571	-370.78198	66.32697	-881.62799	-408.30588	42.11937	-927.87103	-216.84779	35.00441	-882.77405	-425.189	1707.22595	-975.91577	NaN	NaN	NaN	NaN	NaN	NaN	NaN	NaN	NaN	NaN	NaN	NaN	NaN	NaN	NaN	NaN	NaN	NaN	NaN	NaN	NaN	NaN	NaN	NaN
48	0.47	-313.06882	1671.01184	-1030.86084	-320.2605	1654.38855	-900.16479	-446.31317	1618.03467	-1040.92627	-451.89166	1607.10742	-912.1524	-451.19946	1456.92041	-984.36499	-485.84171	1127.86365	-979.36176	-341.77966	1378.11438	-987.52209	-302.93491	1202.83069	-999.48157	-521.3667	1285.34387	-903.54187	-402.28992	1413.07373	-1147.27429	-398.64349	1209.0177	-1215.85583	-394.7135	1095.69531	-1224.84778	-342.62881	954.67889	-1248.13464	-250.79654	860.91974	-1213.27881	-312.38287	838.80463	-1241.90979	-250.56937	772.8457	-1248.36218	-380.56473	1408.96765	-824.12653	-424.50452	1211.96826	-736.44568	-420.7511	1089.55164	-725.31702	-406.39783	969.80865	-710.12408	-348.27725	831.1521	-744.60364	-401.51605	831.85358	-703.98108	-364.94949	756.16272	-703.23395	-315.19928	962.20148	-1093.05334	-305.3837	976.09912	-873.38068	-470.76993	990.96527	-1059.35559	-458.1673	1002.64746	-891.737	-366.53845	643.19745	-1150.91309	-343.3309	481.82974	-1137.80066	-534.21094	331.49048	-1119.58203	-665.28601	222.11595	-1077.41248	-694.95081	240.28812	-1025.99512	-609.83508	87.26002	-1089.93103	-345.42819	643.82983	-808.21429	-333.47668	519.37677	-833.52777	-368.00006	253.3195	-834.08765	-370.62305	66.46999	-881.94275	-408.22278	42.1726	-928.17603	-216.86598	34.90377	-882.9303	-415.87714	1707.81152	-975.83069	NaN	NaN	NaN	NaN	NaN	NaN	NaN	NaN	NaN	NaN	NaN	NaN	NaN	NaN	NaN	NaN	NaN	NaN	NaN	NaN	NaN	NaN	NaN	NaN
49	0.48	-303.79941	1671.5365	-1030.81152	-310.72223	1655.13489	-900.1579	-436.94342	1618.42664	-1040.65576	-442.36151	1607.64978	-911.85303	-441.75983	1457.58313	-983.61945	-476.76892	1128.73474	-977.98132	-332.34955	1378.57581	-987.12097	-293.60834	1203.4198	-998.5733	-511.85229	1286.48157	-901.98944	-393.43616	1413.3335	-1146.7511	-392.32306	1208.94568	-1214.87317	-390.25449	1095.53516	-1223.52002	-342.96439	952.93243	-1247.20422	-252.99487	856.41809	-1213.3783	-316.3717	836.18073	-1240.85608	-256.92728	768.16028	-1248.31445	-370.42944	1409.89282	-823.62946	-412.39767	1212.70618	-735.20508	-407.55084	1090.44446	-723.69745	-391.09637	971.04596	-708.44537	-330.34998	833.39307	-743.19635	-383.53906	833.28516	-702.16693	-345.50549	758.31476	-701.63403	-305.83267	963.26508	-1091.77881	-296.8067	976.36505	-872.13916	-461.77545	991.76862	-1058.47437	-449.33826	1003.03229	-890.88477	-351.89276	644.53857	-1149.80078	-325.85434	483.77365	-1137.01648	-514.41418	331.06854	-1118.49036	-644.28949	220.23535	-1076.07947	-674.83844	237.91058	-1024.84692	-585.1004	87.42358	-1087.77856	-339.29977	643.68829	-808.05414	-328.93347	519.06024	-833.23407	-366.4339	253.36143	-834.36151	-370.43561	66.59379	-882.31091	-408.03598	42.20337	-928.54297	-216.89645	34.82393	-883.01941	-406.61191	1708.34082	-975.76752	NaN	NaN	NaN	NaN	NaN	NaN	NaN	NaN	NaN	NaN	NaN	NaN	NaN	NaN	NaN	NaN	NaN	NaN	NaN	NaN	NaN	NaN	NaN	NaN
50	0.49	-294.51541	1672.02234	-1030.93225	-301.19708	1655.77832	-900.23151	-427.63513	1618.75415	-1040.45276	-432.82648	1608.26318	-911.70813	-432.19022	1458.12512	-983.00726	-467.71838	1129.4104	-976.67175	-322.91312	1379.00049	-986.74548	-284.5853	1203.75806	-997.77185	-502.16974	1287.48291	-900.57513	-384.54611	1413.474	-1146.20679	-386.20544	1208.89063	-1213.94373	-385.7605	1095.44617	-1222.46216	-342.77316	951.55859	-1246.09302	-256.80267	851.62067	-1212.77844	-320.60971	834.08911	-1239.91711	-263.41394	764.0639	-1248.24109	-360.40314	1410.75635	-823.21808	-400.3425	1213.51672	-734.09076	-394.40588	1091.3595	-722.1441	-375.86304	972.341	-706.84283	-313.17966	835.94354	-742.10846	-365.8049	835.04022	-700.258	-326.12546	760.65839	-700.08594	-296.72235	964.25287	-1090.50793	-288.36716	976.49335	-870.73279	-452.80579	992.57861	-1057.72656	-440.74179	1003.34808	-890.07501	-337.90195	646.00391	-1149.24609	-308.57208	485.84622	-1136.20386	-494.12729	329.87744	-1117.29028	-622.56903	217.2493	-1074.85413	-654.08252	234.28027	-1023.73883	-559.349	86.6657	-1085.84607	-333.29797	643.56097	-807.93774	-324.28253	518.72076	-833.02277	-364.69345	253.38181	-834.55579	-370.24408	66.72103	-882.63129	-407.99741	42.32734	-928.86823	-216.91736	34.70102	-883.05914	-397.20703	1708.80994	-975.74799	NaN	NaN	NaN	NaN	NaN	NaN	NaN	NaN	NaN	NaN	NaN	NaN	NaN	NaN	NaN	NaN	NaN	NaN	NaN	NaN	NaN	NaN	NaN	NaN
51	0.5	-285.09958	1672.3335	-1031.08337	-291.6402	1656.35034	-900.33722	-418.23984	1619.01892	-1040.29346	-423.30862	1608.69287	-911.43201	-422.74487	1458.59619	-982.4455	-458.79706	1129.94336	-975.42963	-313.54773	1379.39941	-986.32886	-275.48694	1204.00098	-996.93481	-492.67746	1288.26196	-899.35602	-375.68207	1413.63208	-1145.75879	-379.99557	1208.86755	-1213.08801	-381.49042	1095.50647	-1221.25452	-343.04285	950.34943	-1245.15515	-259.98962	847.5249	-1212.4563	-324.54495	832.06635	-1239.0874	-269.94467	760.29926	-1248.00732	-350.51288	1411.5813	-822.88861	-388.4884	1214.26489	-733.02264	-381.31952	1092.29333	-720.64252	-360.66199	973.70197	-705.31708	-295.5976	838.539	-740.86707	-347.77756	836.46625	-698.91809	-306.7764	763.16937	-698.62573	-287.54315	965.13654	-1089.20642	-279.8963	976.54987	-869.49121	-443.7962	993.22998	-1057.05701	-432.255	1003.62286	-889.21954	-324.01535	647.48627	-1148.78589	-291.50095	487.93179	-1135.35901	-474.31082	328.58789	-1116.61584	-600.14667	213.21613	-1073.70789	-632.63751	229.45267	-1022.79095	-532.68542	85.07469	-1084.23938	-327.67349	643.3551	-807.9137	-319.45352	518.36469	-832.67755	-362.7934	253.41431	-834.68744	-370.10504	66.80994	-882.93152	-408.25436	42.60164	-928.99701	-216.95956	34.57692	-882.99689	-387.78561	1709.24768	-975.83197	NaN	NaN	NaN	NaN	NaN	NaN	NaN	NaN	NaN	NaN	NaN	NaN	NaN	NaN	NaN	NaN	NaN	NaN	NaN	NaN	NaN	NaN	NaN	NaN
